<svg width="613" height="929" viewBox="0 0 613 929" fill="none" xmlns="http://www.w3.org/2000/svg">
<g clip-path="url(#clip0_1_16303)">
<path d="M211.982 71.2103C211.982 71.2103 212.046 71.1889 212.067 71.2103C212.067 71.2103 212.067 71.2103 212.024 71.2103L211.982 71.2103Z" fill="#8DC540" stroke="#8DC540" stroke-width="3.10874" stroke-miterlimit="10"/>
<path d="M212.862 71.6088C212.862 71.6088 212.972 71.719 213.016 71.7631C212.972 71.719 212.906 71.6528 212.862 71.6088Z" fill="#8DC540" stroke="#8DC540" stroke-width="3.10874" stroke-miterlimit="10"/>
<path d="M211.01 71.2047C211.01 71.2047 211.164 71.1827 211.252 71.1386C211.164 71.1386 211.098 71.1606 211.032 71.1827L211.01 71.2047Z" fill="#8DC540" stroke="#8DC540" stroke-width="3.10874" stroke-miterlimit="10"/>
<path d="M118.88 427.999L201.599 405.819L201.555 407.577C201.555 408.017 201.665 408.479 201.885 408.83L202.808 410.325L120.089 432.505L114.374 426.79L204.545 90.2876L208.919 82.6158L208.699 92.8155L118.88 427.999Z" fill="#8DC540"/>
<path d="M205.251 411.315L203.273 408.061C203.273 408.061 203.163 407.776 203.163 407.644L203.251 403.819L121.126 425.801L210.241 93.0358L210.615 76.5272L203.031 89.9143L112.641 427.252L119.631 434.242L120.488 434L205.207 411.315L205.251 411.315ZM200.063 407.886C200.107 408.413 200.217 408.919 200.459 409.38L120.598 430.769L119.323 429.494L200.041 407.864L200.063 407.886ZM207.164 92.5961L117.389 427.603L116.114 426.329L205.999 90.9035L207.251 88.7273L207.164 92.5961Z" fill="#8DC540"/>
<path d="M111.116 430.082L116.832 435.798L94.6736 518.538L93.1788 517.615C92.8051 517.373 92.3435 517.263 91.9258 517.285L90.1672 517.329L112.347 434.611L-222.836 524.429L-233.036 524.649L-225.364 520.275L111.138 430.104L111.116 430.082Z" fill="#8DC540"/>
<path d="M95.6209 520.939L118.57 435.341L111.602 428.372L110.745 428.614L-225.955 518.807L-239.145 526.325L-222.438 525.885L110.151 436.77L88.1689 518.895L91.9938 518.807C91.9938 518.807 92.3016 518.851 92.4115 518.917L95.6649 520.895L95.6209 520.939ZM115.097 436.264L93.6864 516.147C93.2248 515.905 92.6972 515.773 92.1916 515.751L113.822 434.989L115.097 436.264ZM110.657 431.824L111.932 433.099L-223.098 522.852L-226.967 522.94L-224.79 521.687L110.657 431.824Z" fill="#8DC540"/>
<path d="M-225.903 529.139L88.8812 522.017L91.2992 521.973L93.3875 523.226L362.471 686.794L374.297 689.96L371.131 678.133L207.519 409.05L206.266 407.006L206.31 404.544L213.454 89.7823L210.288 77.9559L200.858 87.3863L46.126 358.492L44.9389 360.602L42.8287 361.789L-228.277 516.521L-237.707 525.951L-225.881 529.117L-225.903 529.139ZM-233.091 524.632L-225.419 520.258L46.2139 365.218L111.083 430.087L116.798 435.803L362.207 681.211L94.6405 518.543L93.1457 517.62C92.772 517.378 92.3104 517.268 91.8927 517.29L90.1342 517.334L-222.891 524.413L-233.091 524.632ZM208.706 92.8158L201.627 405.841L201.583 407.6C201.583 408.039 201.693 408.501 201.913 408.853L202.836 410.347L365.526 677.892L120.118 432.483L114.402 426.768L49.5332 361.899L204.551 90.2879L208.925 82.6161L208.706 92.8158Z" fill="#8DC540"/>
<path d="M376.503 692.157L372.458 677.341L207.812 406.61L214.956 89.386L211.088 74.9657L199.503 86.6382L43.7818 359.48L-229.368 515.465L-240.711 526.808L-225.851 530.721L90.9115 523.555L92.6041 524.588L361.885 688.267L376.525 692.179L376.503 692.157ZM371.711 686.266L372.107 687.761L370.612 687.365L46.5076 363.261L-231.5 521.95L-227.324 517.773L46.068 361.722L47.4748 359.26L202.097 88.3528L206.274 84.1762L47.6067 362.162L371.711 686.266ZM-231.038 526.149L91.9446 518.828C91.9446 518.828 92.2524 518.872 92.3623 518.938L93.8351 519.84L368.436 686.772L363.094 685.343L91.7468 520.389L88.8672 520.455L-225.697 527.577L-231.038 526.149ZM369.711 678.77L371.139 684.112L203.284 408.061C203.284 408.061 203.174 407.775 203.174 407.643L203.218 405.884L210.472 84.6378L211.901 89.9795L204.713 407.423L206.186 409.863L369.689 678.748L369.711 678.77ZM45.98 367.174L351.993 673.187L93.967 516.322C93.3295 515.949 92.6041 515.751 91.8567 515.751L-226.972 522.961L45.98 367.174ZM207.263 88.7265L200.053 407.555C200.031 408.28 200.229 409.006 200.624 409.665L357.511 667.669L51.4756 361.634L207.263 88.7265Z" fill="#8DC540"/>
<path d="M212.097 71.2302C212.383 71.2961 212.624 71.45 212.866 71.6039C212.91 71.6478 212.976 71.7138 213.02 71.7578C212.756 71.494 212.449 71.3181 212.097 71.2302Z" fill="#8DC540" stroke="#8DC540" stroke-width="3.10874" stroke-miterlimit="10"/>
<path d="M211.484 71.2047C211.484 71.2047 211.177 71.1607 211.001 71.2047C211.067 71.1827 211.133 71.1607 211.221 71.1607C211.463 71.1387 211.726 71.1387 211.968 71.2047C211.968 71.2047 211.968 71.2047 212.012 71.2047C211.836 71.1607 211.66 71.2047 211.441 71.2047L211.484 71.2047Z" fill="#8DC540" stroke="#8DC540" stroke-width="3.10874" stroke-miterlimit="10"/>
<path d="M-243.879 528.83L-112.91 659.8C-112.316 660.393 -111.459 660.635 -110.668 660.415L66.9699 612.824L197.038 742.892C197.632 743.485 198.489 743.727 199.28 743.507L378.215 695.542C378.215 695.542 378.281 695.476 378.303 695.454C378.632 695.344 378.984 695.169 379.248 694.905C379.512 694.641 379.665 694.311 379.797 693.96C379.819 693.938 379.863 693.894 379.885 693.872L427.85 514.937C428.07 514.146 427.828 513.289 427.235 512.695L297.167 382.627L344.714 205.034C344.934 204.242 344.692 203.385 344.098 202.791L213.129 71.822C213.129 71.822 213.085 71.778 213.041 71.734C212.777 71.4703 212.47 71.2944 212.118 71.2065C211.942 71.1625 211.766 71.2065 211.546 71.2065C211.37 71.2065 211.239 71.1625 211.063 71.2065C211.041 71.2284 210.975 71.2065 210.931 71.2065L31.9524 119.127C31.1611 119.347 30.5236 119.985 30.3038 120.776L-17.2875 298.414L-194.903 345.983C-195.694 346.203 -196.332 346.84 -196.552 347.632L-244.473 526.566C-244.473 526.566 -244.473 526.654 -244.473 526.698C-244.495 526.852 -244.473 527.006 -244.473 527.181C-244.473 527.357 -244.517 527.577 -244.473 527.753C-244.385 528.105 -244.165 528.412 -243.945 528.676C-243.923 528.698 -243.901 528.72 -243.857 528.764L-243.879 528.83ZM88.8861 522.016L66.0027 607.372L-225.92 529.16L-237.746 525.994L-15.397 303.645L42.7896 361.832L44.8999 360.645L46.0869 358.535L-12.0997 300.348L210.271 77.977L213.437 89.8033L291.671 381.66L206.315 404.543L206.271 407.005L207.524 409.05L292.88 386.166L371.136 678.132L374.302 689.959L362.475 686.793L70.5091 608.581L93.3704 523.247L91.2821 521.994L88.8641 522.038L88.8861 522.016ZM-237.724 519.378L-192.397 350.159L-23.1787 304.832L-237.724 519.378ZM-10.8687 292.522L34.4584 123.304L203.699 77.955L-10.8467 292.5L-10.8687 292.522ZM339.856 205.143L294.529 374.362L215.987 81.2743L339.856 205.143ZM422.97 515.025L377.599 684.244L299.013 391.068L422.97 515.025ZM199.368 738.627L75.455 614.714L368.586 693.256L199.368 738.627ZM-110.558 655.557L-234.427 531.688L58.6387 610.208L-110.58 655.535L-110.558 655.557Z" fill="#8DC540"/>
<path d="M380.346 696.008C380.698 695.656 380.983 695.195 381.181 694.689L381.335 694.359L429.344 515.337C429.718 513.996 429.3 512.567 428.333 511.6L298.902 382.17L346.208 205.433C346.581 204.092 346.164 202.664 345.197 201.696L213.875 70.4632C213.436 70.1115 212.974 69.8697 212.491 69.7378L212.007 69.6499C212.007 69.6499 211.655 69.6499 211.523 69.6499C211.369 69.6279 211.194 69.6279 211.04 69.6499L210.49 69.7158L31.5558 117.637C30.2368 117.989 29.1817 119.044 28.808 120.385L-18.5195 297.143L-195.3 344.492C-196.619 344.844 -197.674 345.899 -198.047 347.24L-246.034 526.68C-246.034 526.68 -246.034 526.988 -246.034 527.12C-246.034 527.339 -246.056 527.537 -246.034 527.779L-246.1 528.109L-245.946 528.263C-245.814 528.702 -245.573 529.164 -245.265 529.56L-244.979 529.933L-114.01 660.903C-113.021 661.892 -111.592 662.266 -110.251 661.892L66.4854 614.542L195.916 743.973C196.905 744.962 198.334 745.336 199.675 744.962L379.005 696.821C379.555 696.624 379.972 696.338 380.346 695.964L380.346 696.008ZM378.434 693.216L378.346 693.48C378.236 693.81 378.148 693.898 377.862 693.964L377.576 694.074L198.884 741.973C198.62 742.061 198.334 741.951 198.136 741.753L67.4306 611.047L66.5733 611.289L-111.064 658.88C-111.328 658.968 -111.614 658.858 -111.812 658.661L-242.759 527.713C-242.913 527.515 -242.935 527.405 -242.957 527.383L-242.913 526.724L-195.058 348.031C-194.97 347.768 -194.772 347.57 -194.508 347.482L-15.9915 299.671L31.7976 121.176C31.8855 120.912 32.0833 120.714 32.3471 120.626L211.018 72.7933L211.765 72.7493C211.765 72.7493 211.897 72.8373 211.985 72.9252L212.161 73.1011L342.954 203.895C343.152 204.092 343.218 204.378 343.174 204.642L295.385 383.093L426.091 513.798C426.289 513.996 426.355 514.282 426.311 514.546L378.412 693.238L378.434 693.216ZM376.499 692.161L293.978 384.28L208.226 407.251L207.83 406.592L207.83 405.756L293.561 382.763L211.084 74.9695L-14.2769 300.33L44.1735 358.781L43.7779 359.484L43.0744 359.88L-15.376 301.429L-240.737 526.79L-226.316 530.659L67.1009 609.267L90.0722 523.559L90.8855 523.537L91.567 523.954L68.5957 609.662L376.499 692.161ZM291.78 388.061L372.103 687.765L72.4205 607.464L95.216 522.503L91.7428 520.393L87.6981 520.481L64.9027 605.442L-234.736 525.141L-15.376 305.782L42.5468 363.705L46.042 361.704L48.0424 358.209L-9.88049 300.286L209.457 80.9487L289.758 380.543L204.775 403.316L204.687 407.405L206.775 410.856L291.78 388.061ZM377.598 690.227L424.706 514.524L296.023 385.841L377.598 690.227ZM421.233 515.447L377.598 678.225L302.024 396.238L421.233 515.447ZM374.609 693.216L70.2663 611.685L198.906 740.324L199.763 740.082L374.609 693.216ZM80.6638 617.686L362.584 693.238L199.829 736.851L80.6638 617.686ZM294.55 380.323L341.591 204.686L212.974 76.0686L294.528 380.345L294.55 380.323ZM338.118 205.609L294.55 368.365L218.997 86.4882L338.118 205.609ZM64.6609 610.212L-239.638 528.68L-111.042 657.276L-110.185 657.034L64.6389 610.19L64.6609 610.212ZM-229.24 534.681L52.6147 610.212L-110.119 653.803L-229.24 534.681ZM-240.759 524.57L-18.0139 301.825L-193.673 348.889L-240.737 524.592L-240.759 524.57ZM-28.4114 307.826L-234.757 514.172L-191.145 351.417L-28.3675 307.826L-28.4114 307.826ZM-13.9032 297.714L208.863 74.9476L33.1824 122.033L-13.8812 297.736L-13.9032 297.714ZM198.444 80.9707L-7.90211 287.317L35.7104 124.561L198.488 80.9706L198.444 80.9707Z" fill="#8DC540"/>
</g>
<defs>
<clipPath id="clip0_1_16303">
<rect width="656.784" height="656.131" fill="white" transform="matrix(-0.707107 0.707107 0.707107 0.707107 148.416 0)"/>
</clipPath>
</defs>
</svg>
