<svg preserveAspectRatio="none" width="100%" height="100%" overflow="visible" style="display: block;" viewBox="0 0 403.304 403.925" fill="none" xmlns="http://www.w3.org/2000/svg">
<g id="Group 331">
<path id="Vector" d="M201.637 387.478C242.788 387.478 276.147 354.12 276.147 312.972C276.147 271.823 242.788 238.465 201.637 238.465C160.485 238.465 127.126 271.823 127.126 312.972C127.126 354.12 160.485 387.478 201.637 387.478Z" stroke="var(--stroke-0, #BBBDBF)" stroke-width="32.8935" stroke-miterlimit="10"/>
<path id="Vector_2" d="M201.654 386.86C275.039 386.86 334.529 327.373 334.529 253.993C334.529 180.612 275.039 121.125 201.654 121.125C128.269 121.125 68.7793 180.612 68.7793 253.993C68.7793 327.373 128.269 386.86 201.654 386.86Z" stroke="var(--stroke-0, #4FC2F0)" stroke-width="32.8935" stroke-miterlimit="10"/>
<path id="Vector_3" d="M201.652 386.836C303.938 386.836 386.857 303.922 386.857 201.641C386.857 99.3613 303.938 16.4468 201.652 16.4468C99.3659 16.4468 16.4468 99.3613 16.4468 201.641C16.4468 303.922 99.3659 386.836 201.652 386.836Z" stroke="var(--stroke-0, #8DC540)" stroke-width="32.8935" stroke-miterlimit="10"/>
</g>
</svg>
