<svg width="1191" height="2201" viewBox="0 0 1191 2201" fill="none" xmlns="http://www.w3.org/2000/svg">
<g clip-path="url(#clip0_1_11299)">
<path d="M1030.86 1014.53L1226.93 961.95L1226.83 966.119C1226.83 967.161 1227.09 968.255 1227.61 969.089L1229.8 972.632L1033.72 1025.21L1020.17 1011.66L1233.92 214.005L1244.29 195.82L1243.77 219.997L1030.86 1014.53Z" fill="#4FC2F0" fill-opacity="0.03"/>
<path d="M1235.59 974.986L1230.9 967.274C1230.9 967.274 1230.64 966.597 1230.64 966.284L1230.85 957.218L1036.18 1009.32L1247.42 220.528L1248.31 181.395L1230.33 213.128L1016.06 1012.76L1032.63 1029.33L1034.67 1028.76L1235.49 974.986L1235.59 974.986ZM1223.29 966.858C1223.4 968.108 1223.66 969.307 1224.23 970.401L1034.93 1021.1L1031.9 1018.08L1223.24 966.806L1223.29 966.858ZM1240.12 219.486L1027.32 1013.6L1024.3 1010.58L1237.36 215.473L1240.33 210.315L1240.12 219.486Z" fill="#4FC2F0" fill-opacity="0.03"/>
<path d="M169.513 1251.07C169.513 1251.07 169.513 1250.86 169.461 1250.81C169.461 1250.81 169.513 1250.86 169.513 1250.97L169.513 1251.07Z" fill="#4FC2F0" fill-opacity="0.03" stroke="#4FC2F0" stroke-opacity="0.03" stroke-width="7.36906" stroke-miterlimit="10"/>
<path d="M169.379 1249.07C169.379 1249.07 169.484 1248.65 169.536 1248.49C169.484 1248.65 169.431 1248.81 169.431 1249.02L169.379 1249.07Z" fill="#4FC2F0" fill-opacity="0.03" stroke="#4FC2F0" stroke-opacity="0.03" stroke-width="7.36906" stroke-miterlimit="10"/>
<path d="M170.793 1253.31C170.793 1253.31 170.532 1253.05 170.428 1252.94C170.532 1253.05 170.689 1253.21 170.793 1253.31Z" fill="#4FC2F0" fill-opacity="0.03" stroke="#4FC2F0" stroke-opacity="0.03" stroke-width="7.36906" stroke-miterlimit="10"/>
<path d="M1012.45 1019.48L1026 1033.03L973.474 1229.16L969.931 1226.97C969.045 1226.4 967.951 1226.14 966.961 1226.19L962.792 1226.29L1015.37 1030.21L220.839 1243.12L196.662 1243.64L214.847 1233.28L1012.5 1019.53L1012.45 1019.48Z" fill="#4FC2F0" fill-opacity="0.03"/>
<path d="M975.72 1234.86L1030.12 1031.96L1013.6 1015.44L1011.57 1016.02L213.445 1229.81L182.181 1247.63L221.783 1246.59L1010.16 1035.35L958.056 1230.02L967.123 1229.81C967.123 1229.81 967.852 1229.91 968.113 1230.07L975.824 1234.76L975.72 1234.86ZM1021.89 1034.15L971.135 1223.51C970.04 1222.93 968.79 1222.62 967.591 1222.57L1018.86 1031.13L1021.89 1034.15ZM1011.36 1023.62L1014.38 1026.65L220.219 1239.4L211.049 1239.61L216.207 1236.64L1011.36 1023.62Z" fill="#4FC2F0" fill-opacity="0.03"/>
<path d="M213.571 1254.28L959.744 1237.4L965.476 1237.3L970.426 1240.27L1608.27 1628L1636.3 1635.5L1628.8 1607.46L1240.97 969.622L1238 964.776L1238.1 958.94L1255.04 212.819L1247.53 184.785L1225.18 207.139L858.396 849.776L855.582 854.778L850.58 857.592L207.943 1224.37L185.589 1246.73L213.623 1254.23L213.571 1254.28ZM196.532 1243.6L214.717 1233.23L858.605 865.72L1012.37 1019.49L1025.92 1033.04L1607.64 1614.76L973.397 1229.17L969.853 1226.98C968.967 1226.41 967.873 1226.15 966.883 1226.2L962.715 1226.3L220.709 1243.08L196.532 1243.6ZM1243.78 220.009L1227 962.014L1226.9 966.183C1226.9 967.225 1227.16 968.319 1227.68 969.153L1229.87 972.696L1615.51 1606.89L1033.79 1025.17L1020.24 1011.62L866.473 857.852L1233.93 214.017L1244.3 195.832L1243.78 220.009Z" fill="#4FC2F0" fill-opacity="0.03"/>
<path d="M1641.53 1640.72L1631.94 1605.6L1241.66 963.845L1258.6 211.888L1249.43 177.705L1221.97 205.374L852.839 852.127L205.356 1221.88L178.469 1248.77L213.693 1258.04L964.557 1241.05L968.569 1243.5L1606.88 1631.49L1641.58 1640.77L1641.53 1640.72ZM1630.17 1626.75L1631.11 1630.29L1627.57 1629.36L859.3 861.09L200.302 1237.25L210.202 1227.35L858.258 857.442L861.593 851.606L1228.11 209.439L1238.01 199.538L861.906 858.485L1630.17 1626.75ZM201.396 1247.2L967.006 1229.85C967.006 1229.85 967.735 1229.96 967.996 1230.11L971.487 1232.25L1622.41 1627.95L1609.75 1624.56L966.537 1233.55L959.711 1233.71L214.058 1250.59L201.396 1247.2ZM1625.43 1608.98L1628.82 1621.64L1230.93 967.284C1230.93 967.284 1230.67 966.607 1230.67 966.294L1230.77 962.126L1247.97 200.632L1251.35 213.294L1234.31 965.773L1237.81 971.557L1625.38 1608.93L1625.43 1608.98ZM858.05 870.365L1583.43 1595.75L971.799 1223.91C970.288 1223.03 968.569 1222.56 966.797 1222.56L211.036 1239.65L858.05 870.365ZM1240.36 210.324L1223.27 966.086C1223.22 967.805 1223.69 969.525 1224.62 971.088L1596.51 1582.67L871.076 857.234L1240.36 210.324Z" fill="#4FC2F0" fill-opacity="0.03"/>
<path d="M170.792 1253.3C170.792 1253.3 170.531 1253.04 170.427 1252.94C170.01 1252.41 169.698 1251.79 169.541 1251.11C169.75 1251.95 170.219 1252.62 170.792 1253.3Z" fill="#4FC2F0" fill-opacity="0.03" stroke="#4FC2F0" stroke-opacity="0.03" stroke-width="7.36906" stroke-miterlimit="10"/>
<path d="M169.552 1249.67C169.552 1249.67 169.448 1250.6 169.552 1251.02C169.552 1251.02 169.5 1250.97 169.5 1250.86C169.344 1250.29 169.344 1249.67 169.396 1249.09C169.396 1248.88 169.448 1248.73 169.5 1248.57C169.448 1248.94 169.5 1249.3 169.5 1249.72L169.552 1249.67Z" fill="#4FC2F0" fill-opacity="0.03" stroke="#4FC2F0" stroke-opacity="0.03" stroke-width="7.36906" stroke-miterlimit="10"/>
<path d="M170.957 1253.54L481.411 1563.99C482.818 1565.4 484.851 1565.97 486.727 1565.45L907.804 1452.64L1216.12 1760.96C1217.53 1762.36 1219.56 1762.94 1221.44 1762.42L1645.59 1648.72C1645.59 1648.72 1645.74 1648.56 1645.8 1648.51C1646.58 1648.25 1647.41 1647.83 1648.04 1647.21C1648.66 1646.58 1649.03 1645.8 1649.34 1644.97C1649.39 1644.91 1649.5 1644.81 1649.55 1644.76L1763.25 1220.61C1763.77 1218.73 1763.19 1216.7 1761.79 1215.29L1453.47 906.974L1566.18 486C1566.7 484.124 1566.12 482.092 1564.72 480.685L1254.26 170.231C1254.26 170.231 1254.16 170.127 1254.06 170.023C1253.43 169.398 1252.7 168.981 1251.87 168.772C1251.45 168.668 1251.03 168.772 1250.51 168.772C1250.1 168.772 1249.78 168.668 1249.37 168.772C1249.31 168.824 1249.16 168.772 1249.05 168.772L824.797 282.366C822.921 282.887 821.41 284.398 820.889 286.274L708.077 707.351L287.052 820.111C285.176 820.632 283.665 822.143 283.144 824.019L169.551 1248.17C169.551 1248.17 169.551 1248.38 169.551 1248.48C169.498 1248.85 169.551 1249.21 169.551 1249.63C169.551 1250.05 169.446 1250.57 169.55 1250.98C169.759 1251.82 170.28 1252.55 170.801 1253.17C170.853 1253.23 170.905 1253.28 171.01 1253.38L170.957 1253.54ZM959.755 1237.38L905.511 1439.72L213.529 1254.32L185.495 1246.82L712.559 719.753L850.486 857.68L855.488 854.866L858.302 849.864L720.375 711.937L1247.49 184.821L1254.99 212.855L1440.44 904.681L1238.11 958.924L1238.01 964.76L1240.98 969.606L1443.31 915.363L1628.81 1607.45L1636.31 1635.48L1608.28 1627.98L916.193 1442.58L970.385 1240.3L965.434 1237.33L959.703 1237.44L959.755 1237.38ZM185.547 1231.13L292.992 830.011L694.113 722.566L185.547 1231.13ZM723.293 693.387L830.737 292.266L1231.91 184.769L723.345 693.334L723.293 693.387ZM1554.66 486.261L1447.22 887.381L1261.04 192.637L1554.66 486.261ZM1751.68 1220.81L1644.13 1621.93L1457.85 926.983L1751.68 1220.81ZM1221.64 1750.85L927.917 1457.12L1622.77 1643.3L1221.64 1750.85ZM486.987 1553.94L193.363 1260.31L888.055 1446.44L486.935 1553.88L486.987 1553.94Z" fill="#4FC2F0" fill-opacity="0.03"/>
<path d="M1650.64 1649.83C1651.48 1649 1652.15 1647.9 1652.62 1646.7L1652.99 1645.92L1766.79 1221.56C1767.67 1218.38 1766.68 1215 1764.39 1212.7L1457.59 905.897L1569.72 486.956C1570.61 483.777 1569.62 480.391 1567.32 478.098L1256.04 167.018C1254.99 166.185 1253.9 165.612 1252.75 165.299L1251.61 165.09C1251.61 165.09 1250.77 165.09 1250.46 165.09C1250.09 165.038 1249.68 165.038 1249.31 165.09L1248.01 165.247L823.859 278.84C820.732 279.674 818.231 282.175 817.345 285.354L705.159 704.347L286.114 816.586C282.987 817.419 280.486 819.92 279.6 823.099L165.85 1248.45C165.85 1248.45 165.85 1249.18 165.85 1249.49C165.85 1250.01 165.798 1250.48 165.85 1251.05L165.694 1251.84L166.059 1252.2C166.371 1253.24 166.945 1254.34 167.674 1255.28L168.352 1256.16L478.806 1566.62C481.15 1568.96 484.537 1569.85 487.716 1568.96L906.657 1456.72L1213.46 1763.53C1215.81 1765.87 1219.2 1766.76 1222.37 1765.87L1647.46 1651.76C1648.77 1651.29 1649.76 1650.61 1650.64 1649.73L1650.64 1649.83ZM1646.11 1643.21L1645.9 1643.84C1645.64 1644.62 1645.43 1644.83 1644.75 1644.98L1644.08 1645.24L1220.5 1758.79C1219.87 1758.99 1219.2 1758.73 1218.73 1758.27L908.898 1448.44L906.865 1449.01L485.788 1561.82C485.163 1562.03 484.485 1561.77 484.016 1561.3L173.614 1250.9C173.25 1250.43 173.197 1250.17 173.145 1250.12L173.25 1248.55L286.687 824.975C286.895 824.349 287.364 823.88 287.989 823.672L711.151 710.339L824.432 287.229C824.64 286.604 825.109 286.135 825.735 285.927L1249.26 172.542L1251.03 172.438C1251.03 172.438 1251.35 172.646 1251.55 172.854L1251.97 173.271L1562.01 483.309C1562.48 483.777 1562.63 484.455 1562.53 485.08L1449.25 908.086L1759.08 1217.91C1759.55 1218.38 1759.7 1219.06 1759.6 1219.69L1646.06 1643.26L1646.11 1643.21ZM1641.52 1640.71L1445.91 910.899L1242.64 965.351L1241.71 963.788L1241.71 961.808L1444.92 907.304L1249.42 177.7L715.216 711.902L853.768 850.455L852.83 852.123L851.163 853.06L712.61 714.508L178.408 1248.71L212.59 1257.88L908.116 1444.22L962.568 1241.05L964.496 1241L966.111 1241.99L911.659 1445.15L1641.52 1640.71ZM1440.7 919.862L1631.1 1630.29L920.726 1439.94L974.761 1238.55L966.528 1233.55L956.94 1233.75L902.905 1435.15L192.633 1244.8L712.61 724.825L849.912 862.127L858.197 857.385L862.939 849.1L725.637 711.798L1245.56 191.873L1435.91 902.041L1234.46 956.024L1234.25 965.716L1239.2 973.897L1440.7 919.862ZM1644.13 1636.13L1755.79 1219.63L1450.76 914.599L1644.13 1636.13ZM1747.56 1221.82L1644.13 1607.68L1464.98 939.246L1747.56 1221.82ZM1637.04 1643.21L915.619 1449.95L1220.55 1754.88L1222.58 1754.3L1637.04 1643.21ZM940.266 1464.17L1608.54 1643.26L1222.74 1746.65L940.266 1464.17ZM1447.27 901.52L1558.78 485.184L1253.9 180.306L1447.22 901.572L1447.27 901.52ZM1550.54 487.373L1447.27 873.174L1268.18 205.004L1550.54 487.373ZM902.332 1446.46L181.014 1253.19L485.84 1558.02L487.872 1557.44L902.28 1446.4L902.332 1446.46ZM205.66 1267.42L873.777 1446.46L488.029 1549.78L205.66 1267.42ZM178.356 1243.45L706.357 715.446L289.969 827.007L178.408 1243.5L178.356 1243.45ZM681.711 729.671L192.581 1218.8L295.962 832.999L681.815 729.671L681.711 729.671ZM716.101 705.702L1244.15 177.648L827.715 289.262L716.153 705.754L716.101 705.702ZM1219.46 191.926L730.327 681.055L833.707 295.254L1219.56 191.926L1219.46 191.926Z" fill="#4FC2F0" fill-opacity="0.03"/>
</g>
<defs>
<clipPath id="clip0_1_11299">
<rect width="1556.86" height="1555.31" fill="white" transform="matrix(-0.707107 0.707107 0.707107 0.707107 1100.87 0)"/>
</clipPath>
</defs>
</svg>
