<svg preserveAspectRatio="none" width="100%" height="100%" overflow="visible" style="display: block;" viewBox="0 0 178.831 55.9987" fill="none" xmlns="http://www.w3.org/2000/svg">
<g id="Layer 2">
<path id="Vector" d="M65.8715 16.9614H67.8729C68.016 16.9528 68.159 16.9785 68.2901 17.0366C68.4211 17.0946 68.5363 17.1832 68.626 17.295C68.7379 17.5105 68.7944 17.7506 68.7902 17.9934V44.1418H74.8074V30.5464H88.8798V44.1418H94.8735V18.1888C94.8735 18.1888 94.8735 18.1888 94.8735 18.1524C94.8892 17.8032 94.8892 16.9484 95.9733 16.9484H97.7974V11.8876H91.7099C91.5926 11.8876 90.2062 11.8876 89.4844 12.7892C88.898 13.5215 88.8746 14.7437 88.8746 14.7437V24.9488C88.8746 25.1677 88.9293 25.4934 88.4654 25.4934H75.5502C74.7136 25.4934 74.8127 24.9566 74.8127 23.9611C74.8127 23.3174 74.8127 22.275 74.8127 21.8059V15.734C74.8127 15.734 74.7579 14.6629 74.7371 14.3346C74.6589 13.0577 74.0726 12.2211 72.9963 12.0048C72.3594 11.9146 71.7162 11.8753 71.0731 11.8876H65.8741L65.8715 16.9614Z" fill="var(--fill-0, #196AB4)"/>
<path id="Vector_2" d="M98.8216 11.8866V16.937H100.161C100.601 16.937 101.401 17.4582 101.636 17.8439L109.339 29.993V44.1305H115.333V29.98L123.034 17.8544C123.197 17.5763 123.43 17.3456 123.71 17.1848C123.989 17.024 124.306 16.9386 124.629 16.937H125.814V11.8866H124.342C119.255 11.8866 120.136 11.6261 115.888 18.5971C113.621 22.3236 112.36 24.8827 112.336 24.9218C112.313 24.9609 110.345 21.1301 108.12 17.5208C106.017 14.1096 105.618 11.8866 102.259 11.8866H98.8216Z" fill="var(--fill-0, #196AB4)"/>
<path id="Vector_3" d="M147.001 27.0788C150.365 24.8351 150.738 21.9607 150.769 20.027C150.769 15.5343 147.22 11.6879 140.345 11.8885H126.87V16.9546H129.812V41.1251C129.812 42.8555 130.432 44.1428 133.241 44.1428H140.515C148.153 44.1428 152.127 40.0227 152.127 34.9385C152.127 32.0719 150.647 29.2157 147.001 27.0788ZM135.746 16.9389H141.015C141.992 16.9444 142.927 17.3365 143.616 18.0294C144.305 18.7223 144.692 19.6597 144.692 20.6368V21.158C144.679 23.2923 143.188 25.0201 140.809 25.0149H135.746V16.9389ZM145.849 34.7951C145.849 36.7184 144.476 39.0403 141.226 39.0403H136.765C136.494 39.0403 136.235 38.933 136.043 38.742C135.852 38.551 135.744 38.2918 135.743 38.0213V29.7552H141.541C142.684 29.7552 143.78 30.209 144.587 31.0169C145.395 31.8247 145.849 32.9204 145.849 34.0629V34.7951Z" fill="var(--fill-0, #196AB4)"/>
<path id="Vector_4" d="M178.596 39.004H178.184C176.936 39.017 176.553 38.6522 176.034 37.6541L173.087 31.7281C172.908 31.3442 172.648 31.0035 172.325 30.7296C172.002 30.4556 171.624 30.2548 171.216 30.141C175.961 27.9989 176.834 23.7068 176.894 21.4839C176.894 16.9495 174.098 12.1467 167.356 11.8887H146.944C146.944 11.8887 146.144 11.8574 145.69 11.8548C145.664 11.8548 145.649 11.9017 145.672 11.9043C150.102 12.5246 151.293 16.0739 151.593 16.9547C152.492 16.9547 155.379 16.9547 155.379 16.9547V44.1273H161.334V32.0799H164.722C165.268 32.0727 165.806 32.2179 166.274 32.4991C166.743 32.7803 167.124 33.1865 167.375 33.6721L171.247 41.3728C172.464 43.8224 173.611 44.0387 175.766 44.1247H178.831V39.0066L178.596 39.004ZM170.778 21.9478C170.648 23.6 169.736 26.9904 166.007 26.9904H161.331V16.9052L166.682 16.9313C168.803 16.9313 170.776 19.1829 170.776 21.3015L170.778 21.9478Z" fill="var(--fill-0, #196AB4)"/>
<path id="Vector_5" d="M27.957 53.7184C33.6622 53.7184 38.2872 49.0935 38.2872 43.3883C38.2872 37.6832 33.6622 33.0582 27.957 33.0582C22.2519 33.0582 17.6269 37.6832 17.6269 43.3883C17.6269 49.0935 22.2519 53.7184 27.957 53.7184Z" stroke="var(--stroke-0, #BBBDBF)" stroke-width="4.56047" stroke-miterlimit="10"/>
<path id="Vector_6" d="M27.9571 53.6383C38.1311 53.6383 46.3788 45.3907 46.3788 35.2166C46.3788 25.0426 38.1311 16.7949 27.9571 16.7949C17.7831 16.7949 9.5354 25.0426 9.5354 35.2166C9.5354 45.3907 17.7831 53.6383 27.9571 53.6383Z" stroke="var(--stroke-0, #4FC2F0)" stroke-width="4.56047" stroke-miterlimit="10"/>
<path id="Vector_7" d="M27.957 53.6338C42.1379 53.6338 53.6338 42.1379 53.6338 27.957C53.6338 13.7761 42.1379 2.28024 27.957 2.28024C13.7761 2.28024 2.28024 13.7761 2.28024 27.957C2.28024 42.1379 13.7761 53.6338 27.957 53.6338Z" stroke="var(--stroke-0, #8DC540)" stroke-width="4.56047" stroke-miterlimit="10"/>
</g>
</svg>
