<svg width="56" height="56" viewBox="0 0 56 56" fill="none" xmlns="http://www.w3.org/2000/svg">
<g clip-path="url(#clip0_1_11395)">
<path d="M27.8778 53.5091C33.5537 53.5091 38.1549 48.9079 38.1549 43.2321C38.1549 37.5563 33.5537 32.9551 27.8778 32.9551C22.202 32.9551 17.6008 37.5563 17.6008 43.2321C17.6008 48.9079 22.202 53.5091 27.8778 53.5091Z" stroke="white" stroke-width="4.53704" stroke-miterlimit="10"/>
<path d="M27.8779 53.4284C37.9997 53.4284 46.205 45.2231 46.205 35.1014C46.205 24.9797 37.9997 16.7744 27.8779 16.7744C17.7562 16.7744 9.55084 24.9797 9.55084 35.1014C9.55084 45.2231 17.7562 53.4284 27.8779 53.4284Z" stroke="white" stroke-width="4.53704" stroke-miterlimit="10"/>
<path d="M27.8782 53.423C41.9863 53.423 53.4231 41.9862 53.4231 27.8782C53.4231 13.7703 41.9863 2.3335 27.8782 2.3335C13.7702 2.3335 2.33331 13.7703 2.33331 27.8782C2.33331 41.9862 13.7702 53.423 27.8782 53.423Z" stroke="white" stroke-width="4.53704" stroke-miterlimit="10"/>
</g>
<defs>
<clipPath id="clip0_1_11395">
<rect width="56" height="56" fill="white"/>
</clipPath>
</defs>
</svg>
