<svg width="81" height="13" viewBox="0 0 81 13" fill="none" xmlns="http://www.w3.org/2000/svg">
<g clip-path="url(#clip0_99_7145)">
<mask id="mask0_99_7145" style="mask-type:luminance" maskUnits="userSpaceOnUse" x="-7" y="-7" width="94" height="26">
<path d="M-6.15991 -6.1425H86.5534V18.4858H-6.15991V-6.1425Z" fill="white"/>
</mask>
<g mask="url(#mask0_99_7145)">
<path d="M76.3242 5.4279V7.10407H77.5022V8.76711C77.5059 8.91572 77.4977 9.07599 77.4722 9.20423C77.4254 9.51444 77.1307 10.0426 76.2946 10.0426C75.4634 10.0426 75.174 9.51444 75.1238 9.20423C75.1027 9.07599 75.0937 8.91572 75.0937 8.76711V3.51442C75.0937 3.32862 75.1063 3.12526 75.1457 2.97133C75.2028 2.69138 75.4509 2.1393 76.2884 2.1393C77.1675 2.1393 77.3869 2.72134 77.4372 2.97133C77.4703 3.13692 77.4722 3.41465 77.4722 3.41465V4.05248H80.3666V3.67542C80.3666 3.67542 80.3798 3.28198 80.3447 2.91481C80.1271 0.758864 78.3507 0.0767641 76.3139 0.0767641C74.2733 0.0767641 72.533 0.76521 72.2794 2.91481C72.2566 3.11138 72.2216 3.46498 72.2216 3.67542V8.50738C72.2216 8.71782 72.2284 8.88075 72.2673 9.26533C72.4562 11.362 74.2733 12.1051 76.3058 12.1051C78.3507 12.1051 80.1553 11.362 80.3475 9.26533C80.3815 8.88075 80.3851 8.71782 80.3897 8.50738V5.4279H76.3242ZM56.3667 0.385938H53.46V8.88827C53.4646 9.03644 53.46 9.20291 53.4345 9.32495C53.3738 9.61037 53.132 10.1596 52.33 10.1596C51.5384 10.1596 51.2902 9.61037 51.2341 9.32495C51.205 9.20291 51.2014 9.03644 51.205 8.88827V0.385938H48.2993V8.62441C48.2956 8.83677 48.3122 9.27064 48.3248 9.38428C48.5253 11.5311 50.2173 12.2281 52.33 12.2281C54.4469 12.2281 56.1378 11.5311 56.342 9.38428C56.3581 9.27064 56.3792 8.83677 56.3667 8.62441V0.385938ZM29.6597 0.385938L28.2098 9.36982L26.7607 0.385938H22.0721L21.8234 11.8789H24.6958L24.7736 1.23952L26.75 11.8789H29.6643L31.6424 1.23952L31.7205 11.8789H34.6002L34.3431 0.385938H29.6597ZM12.3001 0.385938L10.1712 11.8789H13.2758L14.8801 1.23952L16.4459 11.8789H19.5289L17.4088 0.385938H12.3001ZM66.525 9.63914L63.8184 0.385938H59.5535V11.7591H62.3748L62.211 2.20984L65.1177 11.7591H69.2081V0.385938H66.3682L66.525 9.63914ZM40.4278 3.37702C40.3768 3.15005 40.3915 2.90891 40.4179 2.78288C40.5001 2.41497 40.7473 2.01371 41.4595 2.01371C42.1233 2.01371 42.5125 2.42751 42.5125 3.04852V3.75128H45.346V2.95023C45.346 0.473893 43.1258 0.0848808 41.5184 0.0848808C39.4939 0.0848808 37.8406 0.752223 37.5387 2.61553C37.4589 3.1226 37.4391 3.57271 37.5662 4.14708C38.0585 6.47038 42.1031 7.14436 42.6902 8.61363C42.7938 8.89196 42.7641 9.24688 42.7113 9.456C42.6233 9.83837 42.3661 10.223 41.6036 10.223C40.8884 10.223 40.4579 9.81181 40.4579 9.19213L40.457 8.08915H37.4072V8.9659C37.4072 11.5064 39.3971 12.2729 41.5404 12.2729C43.593 12.2729 45.2884 11.5715 45.5604 9.67013C45.6901 8.68772 45.5923 8.04782 45.5402 7.80683C45.065 5.42391 40.7541 4.70713 40.4278 3.37702ZM3.05062 3.34883C2.99499 3.11714 3.00797 2.8726 3.03896 2.7451C3.11747 2.37896 3.36614 1.97062 4.09089 1.97062C4.7631 1.97062 5.1589 2.38841 5.1589 3.01443V3.72575H8.02558V2.91835C8.02558 0.418258 5.77149 0.0197992 4.14653 0.0197992C2.1051 0.0197992 0.437042 0.697473 0.131854 2.57421C0.0483254 3.0894 0.0340058 3.5426 0.154724 4.12332C0.652352 6.47303 4.73698 7.15248 5.33127 8.63931C5.44254 8.91572 5.4089 9.27064 5.3537 9.48788C5.2594 9.87423 5.00011 10.2643 4.23124 10.2643C3.51328 10.2643 3.08383 9.84605 3.08383 9.21781L3.07984 8.11187H-0.00421143V8.99069C-0.00421143 11.5603 2.0139 12.333 4.17383 12.333C6.25038 12.333 7.95563 11.6254 8.23381 9.70201C8.37209 8.71059 8.26835 8.06539 8.22171 7.8207C7.73663 5.40856 3.3778 4.69414 3.05062 3.34883Z" fill="white"/>
</g>
</g>
<defs>
<clipPath id="clip0_99_7145">
<rect width="80.3939" height="12.3132" fill="white"/>
</clipPath>
</defs>
</svg>
